<svg width="1000" height="997" viewBox="0 0 1000 997" fill="none" xmlns="http://www.w3.org/2000/svg">
<rect width="1000" height="996.997" rx="19.5195" fill="white"/>
<path d="M115.133 778.529H242.76V581.832H401.92V454.204H242.76V346.096H705.974C729.998 346.096 773.541 354.355 773.541 405.406C773.541 443.694 728.496 456.707 705.974 454.204H499.517C474.639 454.204 454.472 474.372 454.472 499.249V778.529H579.848V581.832H651.169L755.523 778.529H893.661C842.61 678.679 818.586 632.132 783.301 562.312C875.942 522.072 895.475 440.941 893.661 405.406V384.385C893.661 293.166 819.715 219.219 728.496 219.219H175.193C142.023 219.219 115.133 246.109 115.133 279.279V778.529Z" fill="url(#paint0_linear_1622_2589)"/>
<defs>
<linearGradient id="paint0_linear_1622_2589" x1="504.453" y1="219.219" x2="504.453" y2="778.529" gradientUnits="userSpaceOnUse">
<stop stop-color="#1B1120"/>
<stop offset="1" stop-color="#491C3D"/>
</linearGradient>
</defs>
</svg>
