<svg width="1003" height="1164" viewBox="0 0 1003 1164" fill="none" xmlns="http://www.w3.org/2000/svg">
<rect width="934.46" height="931.654" rx="18.2402" fill="url(#paint0_linear_1622_2591)"/>
<path d="M824.555 1160.64V1003.49H875.066C887.638 1003.49 897.965 1005.59 906.046 1009.78C914.128 1013.97 920.115 1019.66 924.006 1026.84C927.897 1033.87 929.843 1041.88 929.843 1050.86C929.843 1059.69 927.897 1067.7 924.006 1074.88C920.115 1082.07 914.128 1087.75 906.046 1091.94C898.114 1096.13 887.787 1098.23 875.066 1098.23H843.412V1160.64H824.555ZM843.412 1082.29H874.842C888.012 1082.29 897.216 1079.45 902.454 1073.76C907.842 1067.92 910.536 1060.29 910.536 1050.86C910.536 1040.98 907.842 1033.28 902.454 1027.74C897.216 1022.05 888.012 1019.21 874.842 1019.21H843.412V1082.29Z" fill="black"/>
<path d="M643.812 1160.64V1003.49H665.813L719.243 1114.17L772.224 1003.49H794.449V1160.64H775.591V1037.39L726.202 1139.98H712.059L662.67 1038.29V1160.64H643.812Z" fill="black"/>
<path d="M488.672 1160.64L546.592 1003.49H566.572L624.267 1160.64H604.062L556.469 1027.06L508.427 1160.64H488.672ZM515.162 1120.23L520.55 1104.96H591.715L597.103 1120.23H515.162Z" fill="black"/>
<path d="M369.312 1160.64V1003.49H420.048C432.321 1003.49 442.348 1005.59 450.131 1009.78C457.913 1013.82 463.675 1019.28 467.417 1026.17C471.158 1033.05 473.029 1040.83 473.029 1049.51C473.029 1057.89 471.083 1065.6 467.192 1072.64C463.451 1079.67 457.614 1085.28 449.682 1089.47C441.75 1093.66 431.572 1095.76 419.15 1095.76H388.17V1160.64H369.312ZM452.376 1160.64L417.803 1090.37H438.906L474.601 1160.64H452.376ZM388.17 1080.94H418.701C430.674 1080.94 439.43 1078.02 444.967 1072.19C450.654 1066.35 453.498 1058.87 453.498 1049.74C453.498 1040.46 450.729 1033.13 445.192 1027.74C439.804 1022.2 430.899 1019.43 418.477 1019.43H388.17V1080.94Z" fill="black"/>
<path d="M281.742 1163.33C271.266 1163.33 261.987 1160.64 253.905 1155.25C245.823 1149.86 239.537 1142.53 235.047 1133.25C230.557 1123.82 228.312 1113.2 228.312 1101.37C228.312 1089.4 230.557 1078.85 235.047 1069.72C239.537 1060.44 245.823 1053.18 253.905 1047.94C261.987 1042.55 271.341 1039.86 281.967 1039.86C291.246 1039.86 299.178 1041.73 305.763 1045.47C312.498 1049.21 317.811 1054.45 321.702 1061.19V999.002H340.56V1160.64H323.498L321.927 1141.78C319.682 1145.52 316.689 1149.04 312.947 1152.33C309.355 1155.62 304.94 1158.32 299.702 1160.41C294.613 1162.36 288.627 1163.33 281.742 1163.33ZM284.212 1146.94C291.695 1146.94 298.205 1145.15 303.743 1141.56C309.28 1137.81 313.546 1132.58 316.539 1125.84C319.532 1118.96 321.029 1110.88 321.029 1101.6C321.029 1092.32 319.532 1084.31 316.539 1077.58C313.546 1070.69 309.28 1065.45 303.743 1061.86C298.205 1058.12 291.695 1056.25 284.212 1056.25C277.178 1056.25 270.892 1058.12 265.354 1061.86C259.817 1065.45 255.476 1070.69 252.333 1077.58C249.191 1084.31 247.619 1092.32 247.619 1101.6C247.619 1110.88 249.191 1118.96 252.333 1125.84C255.476 1132.58 259.817 1137.81 265.354 1141.56C270.892 1145.15 277.178 1146.94 284.212 1146.94Z" fill="black"/>
<path d="M159.295 1163.33C148.818 1163.33 139.539 1160.79 131.458 1155.7C123.376 1150.61 117.015 1143.43 112.375 1134.15C107.886 1124.87 105.641 1114.02 105.641 1101.6C105.641 1089.17 107.886 1078.32 112.375 1069.04C117.015 1059.77 123.376 1052.58 131.458 1047.49C139.689 1042.4 149.118 1039.86 159.744 1039.86C171.118 1039.86 180.622 1042.4 188.255 1047.49C195.888 1052.58 201.65 1059.39 205.541 1067.92C209.432 1076.45 211.378 1085.81 211.378 1095.98C211.378 1097.48 211.378 1098.98 211.378 1100.47C211.378 1101.97 211.303 1103.77 211.153 1105.86H119.784V1091.27H192.969C192.67 1079.75 189.302 1070.99 182.867 1065C176.581 1058.87 168.724 1055.8 159.295 1055.8C153.009 1055.8 147.172 1057.37 141.784 1060.51C136.546 1063.51 132.281 1068 128.988 1073.98C125.695 1079.97 124.049 1087.45 124.049 1096.43V1102.72C124.049 1112.6 125.695 1120.9 128.988 1127.64C132.281 1134.22 136.546 1139.16 141.784 1142.45C147.172 1145.75 153.009 1147.39 159.295 1147.39C167.676 1147.39 174.261 1145.82 179.05 1142.68C183.84 1139.39 187.357 1134.75 189.602 1128.76H208.235C206.439 1135.35 203.296 1141.26 198.806 1146.5C194.466 1151.73 188.928 1155.85 182.193 1158.84C175.608 1161.84 167.975 1163.33 159.295 1163.33Z" fill="black"/>
<path d="M0 1160.64V1003.49H95.6348V1018.98H18.8576V1074.21H84.1856V1089.47H18.8576V1160.64H0Z" fill="black"/>
<circle cx="971.937" cy="1027.06" r="28.0619" stroke="black" stroke-width="4.6003"/>
<path d="M960.446 1043.2V1007.83H972.421C975.217 1007.83 977.508 1008.3 979.293 1009.25C981.079 1010.19 982.392 1011.45 983.234 1013.04C984.11 1014.59 984.548 1016.36 984.548 1018.34C984.548 1020.23 984.11 1021.98 983.234 1023.6C982.392 1025.18 981.062 1026.46 979.243 1027.44C977.424 1028.38 975.099 1028.85 972.27 1028.85H965.499V1043.2H960.446ZM979.041 1043.2L971.411 1027.49H976.969L984.902 1043.2H979.041ZM965.499 1025.01H972.068C974.56 1025.01 976.396 1024.41 977.575 1023.19C978.754 1021.95 979.344 1020.36 979.344 1018.44C979.344 1016.49 978.771 1014.94 977.626 1013.8C976.481 1012.65 974.628 1012.08 972.068 1012.08H965.499V1025.01Z" fill="black"/>
<path d="M107.594 727.504H226.857V543.698H375.584V424.436H226.857V323.413H659.711C682.16 323.413 722.85 331.13 722.85 378.835C722.85 414.614 680.757 426.774 659.711 424.436H466.786C443.538 424.436 424.693 443.281 424.693 466.528V727.504H541.851V543.698H608.498L706.013 727.504H835.097C787.392 634.198 764.943 590.702 731.97 525.458C818.54 487.855 836.792 412.042 835.097 378.835V359.192C835.097 273.952 765.997 204.852 680.757 204.852H163.717C132.721 204.852 107.594 229.979 107.594 260.975V727.504Z" fill="white"/>
<defs>
<linearGradient id="paint0_linear_1622_2591" x1="467.23" y1="0" x2="467.23" y2="931.654" gradientUnits="userSpaceOnUse">
<stop stop-color="#491C3D"/>
<stop offset="1" stop-color="#1B1120"/>
</linearGradient>
</defs>
</svg>
