<svg width="1000" height="997" viewBox="0 0 1000 997" fill="none" xmlns="http://www.w3.org/2000/svg">
<rect width="1000" height="996.997" rx="19.5195" fill="url(#paint0_linear_1622_2590)"/>
<path d="M115.141 778.529H242.768V581.832H401.927V454.204H242.768V346.096H705.981C730.005 346.096 773.549 354.354 773.549 405.405C773.549 443.694 728.504 456.707 705.981 454.204H499.525C474.647 454.204 454.48 474.372 454.48 499.249V778.529H579.855V581.832H651.177L755.531 778.529H893.669C842.618 678.679 818.594 632.132 783.309 562.312C875.95 522.072 895.483 440.941 893.669 405.405V384.384C893.669 293.166 819.722 219.219 728.504 219.219H175.201C142.03 219.219 115.141 246.109 115.141 279.279V778.529Z" fill="white"/>
<defs>
<linearGradient id="paint0_linear_1622_2590" x1="500" y1="0" x2="500" y2="996.997" gradientUnits="userSpaceOnUse">
<stop stop-color="#491C3D"/>
<stop offset="1" stop-color="#1B1120"/>
</linearGradient>
</defs>
</svg>
